<svg version="1.1" xmlns="http://www.w3.org/2000/svg" xmlns:xlink="http://www.w3.org/1999/xlink" viewBox="0 0 322 84.8">
    <path class="st0" d="M55.6,74.2c3.7,0.4,10.8,0.8,18.4-0.5c1.5-0.3,2.3,1.8,1,2.6c-6.6,4.1-17.3,8.6-26.9,8.5
    c-1.1,0-1.9-1.4-1.2-2.2c1.8-2.2,4-4.8,5.2-7.2C52.2,75.3,52.8,73.9,55.6,74.2z"></path>
    <path class="st1" d="M46.1,73c-5.9-1.3-21-5.1-31.6-11.2c-1.3-0.8-2.8,0.7-2.1,2c3,5.1,9.8,13.1,24.7,17.8c0,0,2.5,0.6,3.9-0.4
    c1.5-1,3.8-2.7,5.8-5.7C47.5,74.5,47.2,73.3,46.1,73z"></path>
    <path class="st1" d="M94.9,38.8c0.7-2.5,3.1-11.3,3.1-12.8c0-1.4-1.3-2.3-2.6-2.1c-3.3,0.5-11.7,1.4-23.1,1.3
    c-1.2,0-2.2,0.8-2.3,2c-0.1,1.5-2,11.1-2.3,12.7c-0.2,1.3,0.9,2.4,2.2,2.5c6.9,0.7,15.2-0.1,22.5-1.3C92.4,41,94.4,40.6,94.9,38.8
    z"></path>
    <path class="st1" d="M34.5,8.4c2.6,2.2,8.2,5.9,21,9.3c12,3.1,19,3.1,22.6,2.9c2.3-0.1,3.4-2.9,1.7-4.6C76.4,12.5,69.4,7,59.7,4.2
    C49.5,1.3,40.2,2.6,35.6,3.8C33.4,4.3,32.8,7,34.5,8.4z"></path>

    <path class="st0" d="M0.7,20.3C0.3,19.7,0,18.9,0,18.1c0-0.3,0-0.6,0.1-0.9C1.7,10.9,5.7,5,8.6,1c0.8-1.1,2.5-1.3,3.5-0.4
    C30.4,17,55.9,22.8,63.4,24.3c1.2,0.2,2.1,1.4,1.9,2.6c-0.9,8.3-3.3,16.5-4.4,20.2c-0.3,1.1-1.5,1.9-2.7,1.7
    C24.5,43,7.6,28.1,0.7,20.3z"></path>
    <path class="st1" d="M3.7,49.8c-0.9-0.7-1.6-1.8-1.8-3C0.8,41.6,1,36,1.3,32.5C1.5,30.8,3.4,30,4.7,31c30.2,23,63,24.3,73,24.1
    c1.5,0,2.6,1.5,2,2.9c-1.8,4.1-4.7,8.2-6.5,10.4c-0.9,1.2-2.4,1.9-3.9,1.9C34.9,71.1,9.5,54.1,3.7,49.8z"></path>

    <path d="M119.5,22.8H114v-2h13.4v2h-5.5V38h-2.4V22.8z"></path>
    <path d="M140,30.5V38h-2.3v-7.5c0-1.8-1-3-2.9-3c-2.5,0-3.7,2.3-3.7,4.1V38h-2.3V19.6h2.3v8.2h0.1
    c0.7-1.3,2-2.3,4.1-2.3C138.2,25.6,140,27.5,140,30.5z"></path>
    <path d="M144.2,32.5c0.2,2.3,1.8,3.7,4.2,3.7c1.9,0,2.9-0.9,3.5-1.6l1.4,1.3c-1.1,1.5-3,2.3-5.1,2.3
    c-3.9,0-6.4-2.5-6.4-6.3c0-3.7,2.4-6.3,6.1-6.3c3.6,0,5.6,2.5,5.6,5.7c0,0.7-0.1,1.2-0.1,1.2H144.2z M144.2,30.8h6.9
    c0-2-1.3-3.3-3.2-3.3C145.9,27.5,144.6,28.9,144.2,30.8z"></path>
    <path d="M162.2,20.8h2.4V38h-2.4V20.8z"></path>
    <path d="M178.7,30.5V38h-2.3v-7.5c0-1.8-1-3-2.9-3c-2.5,0-3.7,2.3-3.7,4.1V38h-2.3V25.7l1.6-0.1
    c0.2,0.9,0.3,2.3,0.3,2.9h0.1c0.6-1.5,2-2.9,4.4-2.9C176.9,25.6,178.7,27.5,178.7,30.5z"></path>
    <path d="M188.6,29.5c0-1.3-1.1-2-2.7-2c-1.5,0-2.4,0.7-2.4,1.7c0,2.9,7.4,0.8,7.5,5.5c0,2.2-2.1,3.5-5.1,3.5
    c-3,0-4.6-1.3-5.3-1.8l1.4-1.6c0.5,0.5,2.1,1.5,3.9,1.5c1.8,0,2.7-0.6,2.7-1.6c0-2.5-7.5-0.9-7.5-5.5c0-2,1.9-3.6,4.8-3.6
    c2.9,0,4.8,1.5,4.8,3.5c0,0.5-0.1,0.9-0.1,0.9l-2.1,0.2C188.5,29.9,188.6,29.7,188.6,29.5z"></path>
    <path d="M201.6,37.3c0,0-1.2,0.8-3.2,0.8c-3.2,0-4.4-1.7-4.4-4.8v-5.7H192v-1.8h1.9v-3.6l2.3-0.1v3.8h4.8v1.8h-4.8v5.7
    c0,2,0.7,3,2.4,3c1.4,0,2.3-0.7,2.3-0.7L201.6,37.3z"></path>
    <path d="M204.6,23.3c-0.9,0-1.6-0.6-1.6-1.5c0-0.9,0.7-1.6,1.6-1.6s1.6,0.7,1.6,1.6C206.2,22.6,205.5,23.3,204.6,23.3z
    M203.4,25.7l2.3-0.1V38h-2.3V25.7z"></path>
    <path d="M217.2,37.3c0,0-1.2,0.8-3.2,0.8c-3.2,0-4.4-1.7-4.4-4.8v-5.7h-1.9v-1.8h1.9v-3.6l2.3-0.1v3.8h4.8v1.8h-4.8
    v5.7c0,2,0.7,3,2.4,3c1.4,0,2.3-0.7,2.3-0.7L217.2,37.3z"></path>
    <path d="M229.5,25.7V38l-1.7,0.1c-0.2-0.9-0.3-2.3-0.3-2.6h0c-0.7,1.5-2,2.7-4.1,2.7c-2.9,0-4.8-2-4.8-4.9v-7.5h2.3
    v7.5c0,1.8,1,3,2.9,3c2.3,0,3.4-2.3,3.4-4.1v-6.4H229.5z"></path>
    <path d="M240.8,37.3c0,0-1.2,0.8-3.2,0.8c-3.2,0-4.4-1.7-4.4-4.8v-5.7h-1.9v-1.8h1.9v-3.6l2.3-0.1v3.8h4.8v1.8h-4.8
    v5.7c0,2,0.7,3,2.4,3c1.4,0,2.3-0.7,2.3-0.7L240.8,37.3z"></path>
    <path d="M243.8,32.5c0.2,2.3,1.8,3.7,4.2,3.7c1.9,0,2.9-0.9,3.5-1.6l1.4,1.3c-1.1,1.5-3,2.3-5.1,2.3
    c-3.9,0-6.4-2.5-6.4-6.3c0-3.7,2.4-6.3,6.1-6.3c3.6,0,5.6,2.5,5.6,5.7c0,0.7-0.1,1.2-0.1,1.2H243.8z M243.8,30.8h6.9
    c0-2-1.3-3.3-3.2-3.3C245.5,27.5,244.2,28.9,243.8,30.8z"></path>
    <path d="M273.2,31.9c0,3.7-2.5,6.2-6.3,6.2c-3.8,0-6.3-2.5-6.3-6.2c0-3.7,2.5-6.3,6.3-6.3
    C270.6,25.6,273.2,28.2,273.2,31.9z M270.8,31.9c0-2.5-1.6-4.4-4-4.4c-2.4,0-4,1.9-4,4.4c0,2.5,1.6,4.3,4,4.3
    C269.2,36.2,270.8,34.4,270.8,31.9z"></path>
    <path d="M278.3,24.2v1.6h4.2v1.8h-4.2V38H276V27.6h-1.8v-1.8h1.8v-1.5c0-2.8,1.8-4.7,4.6-4.7c1.4,0,2.5,0.5,2.8,0.6
    l-0.8,1.8c-0.3-0.2-0.8-0.5-1.7-0.5C279.2,21.4,278.3,22.5,278.3,24.2z"></path>

    <path d="M115.8,46.8h4v18.8h-4V46.8z"></path>
    <path d="M135.8,57.3v8.3h-3.9V58c0-1.6-0.8-2.7-2.4-2.7c-2,0-2.9,1.7-2.9,3.3v7h-3.9V52.1l3.1-0.1
    c0.3,0.9,0.5,2.3,0.5,2.8h0.1c0.7-1.6,2-2.9,4.4-2.9C134.1,51.9,135.8,54.3,135.8,57.3z"></path>
    <path d="M148.8,64.8c0,0-1.4,1-4,1c-3.5,0-5.4-1.9-5.4-5.7v-4.9h-2.1v-3h2.2v-3.8l3.8-0.1v3.9h4.7v3h-4.7v4.8
    c0,1.8,0.7,2.6,2.2,2.6c1.4,0,2.2-0.7,2.2-0.7L148.8,64.8z"></path>
    <path d="M160.5,61.3l1.9,2.1c-0.9,1.2-2.9,2.4-5.8,2.4c-4.5,0-7.3-2.9-7.3-6.9c0-4,2.7-6.9,6.9-6.9
    c3.9,0,6.2,2.7,6.2,6.4c0,0.9-0.1,1.4-0.1,1.4h-9.1c0.3,1.8,1.6,3.1,3.8,3.1C158.9,62.8,159.9,61.9,160.5,61.3z M153.2,57.7h5.6
    c0-1.6-1-2.8-2.6-2.8C154.6,54.9,153.4,55.9,153.2,57.7z"></path>
    <path d="M173.7,52.3l-1,3.8c-0.5-0.3-0.9-0.5-1.5-0.5c-1.5,0-2.8,1.2-2.8,3.5v6.5h-3.9V52.1l3.1-0.1
    c0.3,0.9,0.5,2.4,0.5,3h0.1c0.5-1.7,1.6-3,3.6-3C172.5,51.9,173.1,52.1,173.7,52.3z"></path>
    <path d="M188.1,57.3v8.3h-3.9V58c0-1.6-0.8-2.7-2.4-2.7c-2,0-2.9,1.7-2.9,3.3v7h-3.9V52.1l3.1-0.1
    c0.3,0.9,0.5,2.3,0.5,2.8h0.1c0.7-1.6,2-2.9,4.4-2.9C186.5,51.9,188.1,54.3,188.1,57.3z"></path>
    <path d="M204,65.5c0,0-0.8,0.3-1.9,0.3c-1.9,0-2.9-0.7-3.1-2.1c-0.4,0.8-1.5,2.1-4.3,2.1c-2.9,0-4.6-1.5-4.6-3.7
    c0-3.3,3.5-4.2,8.5-4.3h0.2v-0.6c0-1.4-0.8-2.3-2.5-2.3c-1.5,0-2.3,0.6-2.3,1.6c0,0.2,0,0.4,0.1,0.5l-3.4,0.6c0,0-0.2-0.6-0.2-1.3
    c0-2.6,2.3-4.3,6-4.3c4,0,6.1,2,6.1,5.4v4.4c0,0.6,0.2,0.9,0.7,0.9c0.2,0,0.3,0,0.5-0.1L204,65.5z M198.7,60.8v-1.1h-0.2
    c-3.2,0.1-4.7,0.5-4.7,1.8c0,0.9,0.7,1.3,1.9,1.3C197.6,62.9,198.7,61.9,198.7,60.8z"></path>
    <path d="M205.8,45.4h3.9v20.2h-3.9V45.4z"></path>
    <path d="M228.8,61.6H222l-1.3,4h-4.1l6.7-18.8h4.4l6.7,18.8h-4.1L228.8,61.6z M227.8,58.5l-1.8-5.6
    c-0.2-0.6-0.4-1.4-0.6-2.1h-0.1c-0.1,0.7-0.4,1.5-0.6,2.2l-1.8,5.6H227.8z"></path>
    <path d="M248,52.1v13.5l-3.2,0.1c-0.2-0.9-0.4-2.3-0.4-2.7h-0.1c-0.7,1.6-1.9,2.7-4.2,2.7c-3.3,0-5.1-2.3-5.1-5.4v-8.3
    h3.9v7.6c0,1.6,0.8,2.7,2.4,2.7c1.8,0,2.7-1.7,2.7-3.3v-7H248z"></path>
    <path d="M264,45.4v20.2l-3.2,0.1c-0.2-0.8-0.4-2.3-0.4-2.7h-0.1c-0.7,1.6-2.2,2.7-4.5,2.7c-3.7,0-6-2.9-6-6.9
    c0-4.5,2.7-7,6.2-7c1.9,0,3.2,0.7,4,1.8v-8.3H264z M260.1,59.3v-0.9c0-1.5-1.1-3.2-3.2-3.2c-1.8,0-3,1.4-3,3.7
    c0,2.1,1.2,3.6,3.1,3.6C258.9,62.5,260.1,60.9,260.1,59.3z"></path>
    <path d="M268.8,50.2c-1.4,0-2.5-1-2.5-2.4c0-1.4,1.1-2.4,2.5-2.4s2.5,1,2.5,2.4C271.3,49.2,270.2,50.2,268.8,50.2z
    M266.8,52.1l3.9-0.1v13.6h-3.9V52.1z"></path>
    <path d="M284.1,64.8c0,0-1.4,1-4,1c-3.5,0-5.4-1.9-5.4-5.7v-4.9h-2.1v-3h2.2v-3.8l3.8-0.1v3.9h4.7v3h-4.7v4.8
    c0,1.8,0.7,2.6,2.2,2.6c1.4,0,2.2-0.7,2.2-0.7L284.1,64.8z"></path>
    <path d="M298.7,58.9c0,4.1-2.8,6.9-7.1,6.9c-4.3,0-7.1-2.9-7.1-6.9s2.8-6.9,7.1-6.9C295.8,51.9,298.7,54.8,298.7,58.9z
    M294.7,58.9c0-2.2-1.2-3.7-3.1-3.7c-1.9,0-3.1,1.5-3.1,3.7c0,2.2,1.2,3.7,3.1,3.7C293.5,62.6,294.7,61.1,294.7,58.9z"></path>
    <path d="M309.8,52.3l-1,3.8c-0.5-0.3-0.9-0.5-1.5-0.5c-1.5,0-2.8,1.2-2.8,3.5v6.5h-3.9V52.1l3.1-0.1
    c0.3,0.9,0.5,2.4,0.5,3h0.1c0.5-1.7,1.6-3,3.6-3C308.6,51.9,309.2,52.1,309.8,52.3z"></path>
    <path d="M318.3,56.3c0-1.1-0.8-1.8-2.2-1.8c-1.3,0-2,0.6-2,1.4c0,2.7,7.9,0.6,7.9,5.8c0,2.4-2.2,4-5.9,4
    c-4.1,0-5.9-1.7-6.3-2l1.8-2.4c0.3,0.3,2.3,1.6,4.3,1.6c1.4,0,2-0.4,2-1.1c0-2.2-7.5-0.9-7.5-5.8c0-2.6,2.3-4.3,5.8-4.3
    c3.3,0,5.5,1.6,5.5,3.8c0,0.5-0.1,0.9-0.1,0.9l-3.5,0.2C318.2,56.7,318.3,56.5,318.3,56.3z"></path>
</svg>